<svg id="Layer_1" enable-background="new 0 0 512 512" height="512" viewBox="0 0 512 512" width="512" xmlns="http://www.w3.org/2000/svg"><g><g><g><g id="XMLID_1625_"><g id="XMLID_1626_"><g id="XMLID_1627_"><g id="XMLID_1628_"><g id="XMLID_1629_"><g id="XMLID_1630_"><g id="XMLID_1639_"><g id="XMLID_1678_"><g id="XMLID_1679_"><g id="XMLID_1680_"><g id="XMLID_1681_"><g id="XMLID_1682_"><g id="XMLID_1683_"><g id="XMLID_1684_"><g id="XMLID_1685_"><circle cx="256" cy="256" fill="#4f4359" r="256"/></g></g></g></g></g></g></g></g></g></g></g></g></g></g></g></g></g><path d="m511.98 257.605-125.738-125.738-254.376 254.376 125.737 125.737c140.11-.862 253.515-114.266 254.377-254.375z" fill="#372a44"/><g><g><g><g id="XMLID_1090_"><g id="XMLID_1134_"><g id="XMLID_1175_"><g id="XMLID_1176_"><g id="XMLID_1177_"><g id="XMLID_1178_"><g id="XMLID_1179_"><g id="XMLID_1616_"><g id="XMLID_1617_"><g id="XMLID_1618_"><g id="XMLID_1619_"><g id="XMLID_1620_"><g id="XMLID_1621_"><g id="XMLID_1622_"><g id="XMLID_1623_"><circle cx="255.999" cy="256" fill="#fed940" r="179.922"/></g></g></g></g></g></g></g></g></g></g></g></g></g></g></g></g></g><g><g><g id="XMLID_584_"><g id="XMLID_585_"><g id="XMLID_586_"><g id="XMLID_587_"><g id="XMLID_588_"><g id="XMLID_589_"><g id="XMLID_590_"><g id="XMLID_591_"><g id="XMLID_592_"><g id="XMLID_593_"><g id="XMLID_814_"><g id="XMLID_849_"><g id="XMLID_941_"><g id="XMLID_942_"><g><path d="m435.923 256c0 99.367-80.557 179.924-179.924 179.924v-359.848c99.368 0 179.924 80.557 179.924 179.924z" fill="#ffc024"/></g></g></g></g></g></g></g></g></g></g></g></g></g></g></g></g></g></g><g><g><ellipse cx="193.811" cy="185" fill="#7f6866" rx="28.644" ry="28.645" transform="matrix(.368 -.93 .93 .368 -49.501 297.192)"/><ellipse cx="318.189" cy="185" fill="#634c4c" rx="28.644" ry="28.645" transform="matrix(.368 -.93 .93 .368 29.135 412.853)"/></g><g><path d="m177.283 345.03-25.195-24.294c49.759-51.603 123.9-72.976 193.492-55.779l5.933 1.466-8.398 33.978-5.932-1.466c-57.51-14.212-118.78 3.45-159.9 46.095z" fill="#7f6866"/></g><g><g><path d="m351.51 266.42-8.39 33.98-5.94-1.46c-27.06-6.69-54.95-6.32-81.18.39v-35.91c29.18-6.12 59.8-5.82 89.58 1.54z" fill="#634c4c"/></g></g></g></g></svg>