<svg id="Layer_1" enable-background="new 0 0 511.981 511.981" height="512" viewBox="0 0 511.981 511.981" width="512" xmlns="http://www.w3.org/2000/svg"><g><g><path d="m485.502 12.259h-79.747c-5.523 0-10 4.478-10 10v2.805c-18.363-1.452-36.906-6.572-56.363-11.959-23.269-6.443-47.331-13.105-71.701-13.105h-112.143c-30.679 0-55.501 16.172-66.399 43.259-6.207 15.428-6.479 31.339-1.32 43.196-7.606 5.465-13.936 13.051-18.544 22.471-8.322 17.011-9.151 36.271-2.793 51.103-10.898 8.543-17.625 20.821-20.691 32.647-3.592 13.853-2.572 27.343 2.22 37.646-18.449 7.411-31.542 25.094-31.542 45.396 0 13.943 5.405 26.768 15.219 36.109 9.476 9.021 22.133 13.989 35.64 13.988l162.41-.005c16.464 17.909 21.957 44.092 13.268 65.005-13.031 31.361-12.298 56.688 2.451 84.684 10.648 20.212 36.306 36.482 56.212 36.482 1.599 0 3.161-.104 4.674-.321 12.265-1.752 20.816-10.203 23.461-23.186.871-4.272 1.131-9.309 1.434-15.141.838-16.181 1.986-38.342 16.158-65.492 8.273-15.85 11.13-32.729 13.651-47.622 4.637-27.396 7.396-43.661 34.698-46.645v2.718c0 5.522 4.477 10 10 10h79.747c5.523 0 10-4.478 10-10v-294.033c0-5.523-4.477-10-10-10zm-10 294.034h-59.747v-92.014c0-5.522-4.477-10-10-10s-10 4.478-10 10v79.225c-44.37 4.023-49.689 35.447-54.417 63.377-2.385 14.089-4.851 28.657-11.662 41.706-16.189 31.015-17.521 56.709-18.401 73.712-.261 5.03-.486 9.374-1.058 12.182-1.244 6.104-4.107 7.011-6.693 7.38-11.013 1.572-32.208-10.207-40.362-25.685-11.989-22.758-12.459-41.735-1.676-67.688 9.547-22.979 6.491-50.531-6.882-72.679h12.329c5.522 0 10-4.478 10-10 0-5.523-4.478-10-10-10l-199.595.006c-8.349 0-16.109-3.009-21.849-8.474-5.81-5.53-9.009-13.21-9.009-21.624 0-15.685 13.493-28.738 30.079-29.098l50-1.088c5.522-.12 9.9-4.694 9.78-10.216-.118-5.447-4.571-9.782-9.993-9.782-.074 0-.148.001-.222.002l-46.759 1.018c-5.418-4.955-7.292-16.949-4.204-28.857 1.755-6.769 9.489-28.854 35.313-28.854 5.523 0 10-4.478 10-10s-4.477-10-10-10c-5.839 0-11.188.758-16.063 2.124-3.48-9.363-2.56-22.215 2.839-33.252 2.771-5.664 8.336-14.065 18.249-18.418.293-.107.583-.229.867-.365 3.793-1.535 8.199-2.479 13.297-2.479 5.523 0 10-4.478 10-10s-4.477-10-10-10c-4.732 0-9.298.552-13.651 1.624-2.543-6.26-2.738-16.341 1.692-27.353 3.716-9.237 15.818-30.723 47.844-30.723h112.143c21.652 0 43.37 6.014 66.364 12.38 20.08 5.56 40.751 11.273 61.7 12.738v79.162c0 5.522 4.477 10 10 10s10-4.478 10-10v-92.021h59.747z"/><path d="m405.755 159.276c-5.523 0-10 4.478-10 10v.007c0 5.522 4.477 9.996 10 9.996s10-4.48 10-10.003-4.477-10-10-10z"/></g></g></svg>